<?xml version="1.0" ?><svg id="Layer_1" style="enable-background:new 0 0 64 64;" version="1.1" viewBox="0 0 64 64" xml:space="preserve" xmlns="http://www.w3.org/2000/svg" xmlns:xlink="http://www.w3.org/1999/xlink"><style type="text/css">
	.st0{fill:#59595B;}
	.st1{fill:#EA2127;}
	.st2{fill:none;}
	.st3{fill:#FFFFFF;}
	.st4{fill:none;stroke:#59595B;stroke-width:2;stroke-miterlimit:10;}
</style><g><g><path class="st0" d="M47.9988785,34.0188408l2.4834251-9.5839596c0.1732178-0.6679249,0.0310631-1.364563-0.3916245-1.9101067    c-0.4226913-0.5460148-1.0609627-0.8590317-1.7510109-0.8590317H22.7156048l-0.8726807-3.0774479    c-0.2325268-0.8289051-0.996006-1.4083385-1.8573895-1.4083385h-5.5759335c-0.5328341,0-0.9639969,0.431633-0.9639969,0.9639969    s0.4311628,0.9639969,0.9639969,0.9639969l5.577816,0.0037651l5.3782387,18.9664555    c0.2325268,0.82938,0.9960041,1.4088135,1.8573895,1.4088135h20.9641151c0.5328331,0,0.9639969-0.431633,0.9639969-0.9639969    s-0.4311638-0.9640007-0.9639969-0.9640007l-20.9659977-0.0042343l-0.532423-1.8776283h19.1675034    C46.8644867,35.677124,47.7456436,34.9955482,47.9988785,34.0188408z M23.7325554,25.2520199h21.1615753    c0.3991547,0,0.7229996,0.323843,0.7229996,0.7229977s-0.3238449,0.7229977-0.7229996,0.7229977H24.1425381L23.7325554,25.2520199    z M25.1790218,30.3530159h12.9671268c0.3991547,0,0.7229996,0.323843,0.7229996,0.7229977    s-0.3238449,0.7229977-0.7229996,0.7229977H25.5890045L25.1790218,30.3530159z"/><circle class="st0" cx="29.9517612" cy="44.1690521" r="2.6509924"/><circle class="st0" cx="44.5724068" cy="44.1690521" r="2.6509924"/></g><path class="st1" d="M51.9046631,12.3306894c-0.0361328-0.0427856-0.0654907-0.0892334-0.105835-0.1295166   c-0.0402222-0.0402222-0.0865479-0.069519-0.1292114-0.1055908C46.6091919,7.0942998,39.6600952,4.0000005,32,4.0000005   c-15.4394531,0-28,12.5605469-28,28c0,7.6599731,3.0942383,14.6088867,8.0953369,19.6693115   c0.0361328,0.0427856,0.0654907,0.0892334,0.105835,0.1295166c0.0402222,0.0402222,0.0865479,0.069519,0.1292114,0.1055908   C17.3908081,56.9057007,24.3399048,60,32,60c15.4394531,0,28-12.5605469,28-28   C60,24.3400269,56.9057617,17.3911133,51.9046631,12.3306894z M32,8.000001c5.8983154,0,11.3029785,2.1428223,15.4862671,5.6856079   L13.6856079,47.4862671C10.1428223,43.3030396,8,37.8984375,8,32C8,18.7661133,18.7666016,8.000001,32,8.000001z M32,56   c-5.8983154,0-11.3029785-2.1428223-15.4862671-5.6856079l33.8006592-33.8006592C53.8571777,20.6969604,56,26.1015625,56,32   C56,45.2338867,45.2333984,56,32,56z"/></g></svg>